<svg xmlns="http://www.w3.org/2000/svg" width="124.475" height="115.612" viewBox="0 0 124.475 115.612">
  <g id="shopping-cart" transform="translate(0 -19.114)" opacity="0.205">
    <g id="Group_13" data-name="Group 13" transform="translate(41.348 112.749)">
      <g id="Group_12" data-name="Group 12" transform="translate(0)">
        <path id="Path_7" data-name="Path 7" d="M180.476,402.828a10.989,10.989,0,1,0,10.82,10.988A10.918,10.918,0,0,0,180.476,402.828Zm0,15.841a4.853,4.853,0,1,1,4.779-4.853A4.822,4.822,0,0,1,180.476,418.669Z" transform="translate(-169.656 -402.828)" fill="#7e7e7e"/>
      </g>
    </g>
    <g id="Group_15" data-name="Group 15" transform="translate(79.842 112.749)">
      <g id="Group_14" data-name="Group 14">
        <path id="Path_8" data-name="Path 8" d="M338.421,402.828a10.989,10.989,0,1,0,10.82,10.988A10.918,10.918,0,0,0,338.421,402.828Zm0,15.841a4.853,4.853,0,1,1,4.779-4.853A4.822,4.822,0,0,1,338.421,418.669Z" transform="translate(-327.601 -402.828)" fill="#7e7e7e"/>
      </g>
    </g>
    <g id="Group_17" data-name="Group 17" transform="translate(46.794 54.898)">
      <g id="Group_16" data-name="Group 16" transform="translate(0)">
        <path id="Path_9" data-name="Path 9" d="M237.307,165.755h-43.29a3.068,3.068,0,0,0,0,6.135h43.29a3.068,3.068,0,0,0,0-6.135Z" transform="translate(-190.996 -165.755)" fill="#7e7e7e"/>
      </g>
    </g>
    <g id="Group_19" data-name="Group 19" transform="translate(49.14 70.828)">
      <g id="Group_18" data-name="Group 18">
        <path id="Path_10" data-name="Path 10" d="M242.4,231.035H203.823a3.068,3.068,0,0,0,0,6.135H242.4a3.068,3.068,0,0,0,0-6.135Z" transform="translate(-200.802 -231.035)" fill="#7e7e7e"/>
      </g>
    </g>
    <g id="Group_21" data-name="Group 21" transform="translate(0 19.114)">
      <g id="Group_20" data-name="Group 20">
        <path id="Path_11" data-name="Path 11" d="M123.1,41.23a6.079,6.079,0,0,0-4.738-2.259h-95.2L21.241,29.6a6.138,6.138,0,0,0-3.553-4.39L4.273,19.369A3.066,3.066,0,0,0,1.839,25l13.415,5.845,14.788,72.051a6.141,6.141,0,0,0,5.987,4.9h73.218a3.068,3.068,0,0,0,0-6.135H36.029l-1.8-8.764h75.583a6.141,6.141,0,0,0,5.986-4.9l8.549-41.649A6.128,6.128,0,0,0,123.1,41.23ZM109.813,86.754H32.971L24.423,45.106h93.938Z" transform="translate(0 -19.114)" fill="#7e7e7e"/>
      </g>
    </g>
  </g>
</svg>
